<svg width="22" height="21" viewBox="0 0 22 21" fill="none" xmlns="http://www.w3.org/2000/svg">
<path d="M7.19824 4.81445C7.19824 6.50781 8.30225 7.95215 9.82959 8.4502V13.5967C9.82959 15.2485 10.5684 16.8257 11.0166 16.8257C11.4565 16.8257 12.187 15.2485 12.187 13.5967V8.4502C13.7227 7.96045 14.8267 6.50781 14.8267 4.81445C14.8267 2.70605 13.1333 0.979492 11.0166 0.979492C8.8999 0.979492 7.19824 2.70605 7.19824 4.81445ZM9.9458 5.04688C9.25684 5.04688 8.64258 4.43262 8.64258 3.73535C8.64258 3.02148 9.25684 2.42383 9.9458 2.42383C10.668 2.42383 11.249 3.02148 11.249 3.73535C11.249 4.43262 10.668 5.04688 9.9458 5.04688ZM10.9917 20.7603C17.0679 20.7603 21.019 18.8428 21.019 16.1782C21.019 13.8208 17.7402 12.1025 13.7642 11.729V13.9785C16.3125 14.2275 18.4956 15.0493 18.4956 16.1201C18.4956 17.5479 15.3745 18.4775 10.9917 18.4775C6.60889 18.4775 3.49609 17.5479 3.49609 16.1201C3.49609 15.0493 5.6792 14.2275 8.21924 13.9785V11.729C4.25146 12.1025 0.972656 13.8208 0.972656 16.1782C0.972656 18.8428 4.92383 20.7603 10.9917 20.7603Z" fill="#2B6CB0"/>
</svg>
