<svg width="16" height="20" viewBox="0 0 16 20" fill="none" xmlns="http://www.w3.org/2000/svg">
<path d="M0.0644531 16.0122C0.0644531 17.9878 1.19336 19.1084 3.16895 19.1084H12.9058C14.8149 19.1084 15.9355 17.9878 15.9355 16.0122V7.4624C15.9355 5.49512 14.8066 4.37451 12.8311 4.37451H12.0923C12.0757 2.1582 10.2578 0.456543 8 0.456543C5.73389 0.456543 3.92432 2.1582 3.90771 4.37451H3.16895C1.19336 4.37451 0.0644531 5.48682 0.0644531 7.4624V16.0122ZM6.24854 4.37451C6.26514 3.30371 6.9624 2.51514 8 2.51514C9.0293 2.51514 9.72656 3.30371 9.75146 4.37451H6.24854ZM2.62939 15.6553V7.82764C2.62939 7.20508 2.92822 6.93945 3.51758 6.93945H12.4824C13.0635 6.93945 13.3706 7.20508 13.3706 7.82764V15.6553C13.3706 16.2778 13.0635 16.5435 12.5654 16.5435H3.51758C2.92822 16.5435 2.62939 16.2778 2.62939 15.6553Z" fill="#2B6CB0"/>
</svg>
