<svg width="18" height="19" viewBox="0 0 18 19" fill="none" xmlns="http://www.w3.org/2000/svg">
<path d="M8.97154 3.4577L9.69565 2.75242C10.5051 1.94594 11.5771 1.5 12.7186 1.5C13.8601 1.5 14.9352 1.94594 15.7447 2.75242C16.5542 3.56207 17 4.63422 17 5.77911C17 6.92083 16.5541 7.99615 15.7478 8.80579L15.0522 9.4826L15.7352 10.2227C16.5415 11.0292 16.9842 12.0981 16.9842 13.2367C16.9842 14.3753 16.5415 15.4474 15.7352 16.2507C14.9289 17.0541 13.8601 17.5 12.7217 17.5C11.5834 17.5 10.5115 17.0572 9.7083 16.2507L8.99368 15.536L8.28221 16.2507C6.61897 17.9143 3.91541 17.9143 2.25217 16.2507C1.44585 15.4443 1.00316 14.3753 1.00316 13.2367C1.00316 12.0981 1.44585 11.026 2.25217 10.2195L2.96996 9.50791L2.25217 8.79314C1.44269 7.98666 1 6.91767 1 5.77911C1 4.64054 1.44269 3.56839 2.24901 2.76507C3.91225 1.1015 6.61581 1.1015 8.27905 2.76507L8.97154 3.4577ZM10.2206 15.7384C10.8877 16.4057 11.7763 16.7757 12.7217 16.7757C13.6672 16.7757 14.5526 16.4089 15.2229 15.7384C15.8901 15.0711 16.2601 14.1823 16.2601 13.2367C16.2601 12.2911 15.8933 11.4055 15.2261 10.735L14.5209 10.0297L9.50593 15.0236L10.2206 15.7384ZM2.76443 10.735C2.09723 11.4024 1.72727 12.2911 1.72727 13.2367C1.72727 14.1823 2.09407 15.0679 2.76443 15.7384C3.43478 16.4089 4.32016 16.7757 5.26561 16.7757C6.21107 16.7757 7.09644 16.4089 7.76364 15.7415L8.4751 15.0268L3.48221 10.0266L2.76443 10.735ZM4.00079 9.51423L8.99684 14.5113L14.5178 9.00504L15.2324 8.29027C15.9028 7.61979 16.2727 6.72791 16.2727 5.77911C16.2727 4.8303 15.9028 3.93843 15.2324 3.26794C14.5621 2.59745 13.6704 2.22742 12.7217 2.22742C11.7731 2.22742 10.8814 2.59745 10.2079 3.26794L9.3415 4.11237L4.00079 9.51423ZM2.76443 3.27743C2.09723 3.94475 1.72727 4.83346 1.72727 5.77911C1.72727 6.72475 2.09407 7.6103 2.76126 8.28079L3.47589 8.99239L5.87589 6.5508L8.45613 3.97005L7.76364 3.27743C7.09644 2.6101 6.2079 2.24007 5.26245 2.24007C4.32016 2.24323 3.43162 2.6101 2.76443 3.27743Z" fill="black" stroke="#2B6CB0" stroke-width="1.5"/>
</svg>
