<svg width="22" height="22" viewBox="0 0 22 22" fill="none" xmlns="http://www.w3.org/2000/svg">
<path d="M10.5913 20.876H12.293C13.1313 20.876 13.8203 20.3364 14.0029 19.5396L14.2852 18.3442L14.3599 18.3193L15.4058 18.9585C16.1113 19.3901 16.9663 19.2739 17.5557 18.6763L18.7261 17.5059C19.332 16.8833 19.4316 16.0366 19 15.3477L18.3525 14.3184L18.3774 14.252L19.5645 13.9697C20.353 13.7622 20.8843 13.0815 20.8843 12.2515V10.6328C20.8843 9.80273 20.3613 9.12207 19.5645 8.92285L18.3857 8.63232L18.3608 8.56592L19 7.52832C19.4399 6.83936 19.332 6.00098 18.7344 5.37842L17.5557 4.20801C16.9746 3.61035 16.1113 3.48584 15.4058 3.91748L14.3599 4.55664L14.2852 4.53174L14.0029 3.33643C13.8203 2.53955 13.1313 2 12.293 2H10.5913C9.75293 2 9.06396 2.54785 8.88135 3.33643L8.59912 4.53174L8.52441 4.55664L7.47852 3.91748C6.77295 3.49414 5.90967 3.61035 5.32861 4.20801L4.1499 5.37842C3.55225 6.00098 3.44434 6.83936 3.88428 7.52832L4.52344 8.56592L4.49854 8.63232L3.31982 8.92285C2.52295 9.12207 2 9.80273 2 10.6328V12.2515C2 13.0815 2.53125 13.7705 3.31982 13.9697L4.50684 14.252L4.53174 14.3184L3.88428 15.3477C3.44434 16.0366 3.55225 16.8833 4.1582 17.5059L5.32861 18.6763C5.91797 19.2739 6.77295 19.3901 7.47852 18.9585L8.52441 18.3193L8.59912 18.3442L8.88135 19.5396C9.06396 20.3364 9.75293 20.876 10.5913 20.876ZM11.0312 18.6929C10.8984 18.6929 10.8403 18.6265 10.8154 18.5186L10.3506 16.5181C9.75293 16.4102 9.15527 16.1611 8.59912 15.7959L6.84766 16.8667C6.74805 16.9331 6.65674 16.9331 6.56543 16.8418L5.98438 16.269C5.89307 16.1777 5.90967 16.0864 5.95947 15.9951L7.05518 14.2354C6.70654 13.6792 6.45752 13.1064 6.35791 12.5171L4.35742 12.0522C4.24121 12.0273 4.1748 11.9692 4.1748 11.8364V11.0479C4.1748 10.915 4.24121 10.8569 4.35742 10.832L6.34961 10.3672C6.47412 9.77783 6.70654 9.18018 7.04688 8.64893L5.95947 6.88916C5.90137 6.79785 5.88477 6.70654 5.98438 6.60693L6.56543 6.04248C6.65674 5.95117 6.73975 5.95117 6.84766 6.00928L8.59082 7.08008C9.03076 6.77295 9.71973 6.49072 10.3423 6.35791L10.8154 4.35742C10.8403 4.24951 10.8984 4.18311 11.0312 4.18311H11.853C11.9941 4.18311 12.0439 4.24951 12.0688 4.35742L12.542 6.36621C13.1646 6.48242 13.7622 6.73975 14.2852 7.08838L16.02 6.02588C16.1279 5.96777 16.2109 5.95947 16.3022 6.05078L16.8916 6.62354C16.9829 6.71484 16.9663 6.81445 16.9082 6.90576L15.8374 8.64893C16.1694 9.17188 16.4102 9.77783 16.5264 10.3589L18.5352 10.832C18.6431 10.8569 18.7095 10.915 18.7095 11.0479V11.8364C18.7095 11.9692 18.6431 12.0273 18.5352 12.0522L16.5264 12.5254C16.4185 13.0981 16.1694 13.7041 15.8291 14.2354L16.9082 15.9785C16.9663 16.0698 16.9746 16.1611 16.8833 16.2524L16.3022 16.8252C16.2109 16.9248 16.1196 16.9165 16.02 16.8584L14.2935 15.7959C13.7207 16.1611 13.2061 16.3853 12.542 16.5181L12.0688 18.5186C12.0439 18.6265 11.9941 18.6929 11.853 18.6929H11.0312ZM11.4463 14.5425C13.1396 14.5425 14.5425 13.1479 14.5425 11.438C14.5425 9.73633 13.1396 8.3501 11.4463 8.3501C9.73633 8.3501 8.3335 9.73633 8.3335 11.438C8.3335 13.1562 9.73633 14.5425 11.4463 14.5425ZM11.4463 12.6748C10.7656 12.6748 10.2095 12.1187 10.2095 11.438C10.2095 10.7656 10.7739 10.2178 11.4463 10.2178C12.1021 10.2178 12.6499 10.7739 12.6499 11.438C12.6499 12.1187 12.1021 12.6748 11.4463 12.6748Z" fill="#4299E1"/>
</svg>
