<svg width="22" height="20" viewBox="0 0 22 20" fill="none" xmlns="http://www.w3.org/2000/svg">
<path d="M5.03174 19.5859C3.63721 19.5859 2.96484 18.2246 3.76172 17.1621C4.08545 16.7222 4.53369 15.9419 4.83252 15.4272C2.30908 13.9995 0.748535 11.4927 0.748535 8.77002C0.748535 4.14648 5.30566 0.436035 11 0.436035C16.686 0.436035 21.2432 4.14648 21.2432 8.77002C21.2432 13.4766 16.7773 17.0376 10.6929 17.0874C8.72559 18.4985 6.27686 19.5859 5.03174 19.5859ZM6.40967 16.9214C7.09863 16.6475 8.61768 15.6265 9.54736 14.8877C9.9292 14.5806 10.1948 14.4893 10.5767 14.4893C10.7344 14.4976 10.8838 14.4976 11 14.4976C15.2334 14.4976 18.6367 11.9243 18.6367 8.77002C18.6367 5.61572 15.2334 3.04248 11 3.04248C6.7583 3.04248 3.35498 5.61572 3.35498 8.77002C3.35498 10.7954 4.74951 12.5801 7.05713 13.6924C7.59668 13.958 7.7793 14.4146 7.48047 14.9707C7.10693 15.6514 6.55908 16.3569 6.26025 16.7305C6.11914 16.9214 6.19385 17.0044 6.40967 16.9214Z" fill="#2B6CB0"/>
</svg>
