<svg width="13" height="13" viewBox="0 0 13 13" fill="none" xmlns="http://www.w3.org/2000/svg">
<path fill-rule="evenodd" clip-rule="evenodd" d="M7.07914 10.9143C7.39499 10.9143 7.64125 10.7911 7.81256 10.5342L12.8233 2.78246C12.9518 2.58974 13 2.41843 13 2.25248C13 1.82956 12.6895 1.52441 12.2559 1.52441C11.9561 1.52441 11.7741 1.63148 11.5921 1.92057L7.05773 9.10483L4.73435 6.16046C4.55769 5.94097 4.37567 5.84461 4.11336 5.84461C3.67438 5.84461 3.35853 6.1551 3.35853 6.58338C3.35853 6.77075 3.42277 6.94741 3.57802 7.13478L6.35108 10.5502C6.55451 10.8019 6.77935 10.9143 7.07914 10.9143ZM4.45403 10.5342C4.28272 10.7911 4.03646 10.9143 3.72061 10.9143C3.42082 10.9143 3.19598 10.8019 2.99255 10.5502L0.219489 7.13478C0.0642408 6.94741 0 6.77075 0 6.58338C0 6.1551 0.315851 5.84461 0.754829 5.84461C1.01715 5.84461 1.19916 5.94097 1.37582 6.16046L3.6992 9.10483L4.45403 10.1777V10.5342ZM6.97694 6.48361L9.46481 2.78246C9.59329 2.58974 9.64147 2.41843 9.64147 2.25248C9.64147 1.82956 9.33097 1.52441 8.89735 1.52441C8.59756 1.52441 8.41554 1.63148 8.23353 1.92057L5.98023 5.4869L6.97694 6.48361Z" fill="black"/>
</svg>
